<?xml version="1.0" encoding="utf-8"?>
<!-- Generator: Adobe Illustrator 25.2.3, SVG Export Plug-In . SVG Version: 6.00 Build 0)  -->
<svg version="1.1" id="Camada_1" xmlns="http://www.w3.org/2000/svg" xmlns:xlink="http://www.w3.org/1999/xlink" x="0px" y="0px"
	 viewBox="0 0 279.2 279.2" style="enable-background:new 0 0 279.2 279.2;" xml:space="preserve">
<style type="text/css">
	.st0{fill:#F0D75C;}
</style>
<g>
	<g>
		<path class="st0" d="M223.3,111.7c-4,0-7.7-0.7-11.3-1.8l34.4-29.5c4.4-3.8,6-10,4-15.4c-2-5.5-7.3-9.1-13.1-9.1H184
			c5.8-16.2,21.2-27.9,39.3-27.9c23.1,0,41.9,18.8,41.9,41.9C265.2,92.9,246.4,111.7,223.3,111.7L223.3,111.7z M97,69.8h19.7h120.5
			l-97.7,83.8L41.9,69.8H97L97,69.8z M223.3,14c-26,0-47.4,17.9-53.6,41.9h-66.9L49,2c-1.9-1.9-4.6-2.5-7.1-1.7L0,14.3l4.4,13.2
			L42.2,15l40.9,40.9H41.9c-5.8,0-11.1,3.6-13.1,9.1c-2,5.5-0.4,11.6,4,15.4l99.8,85.6v99.3H97.7c-3.9,0-7,3.1-7,7c0,3.9,3.1,7,7,7
			h83.8c3.9,0,7-3.1,7-7c0-3.9-3.1-7-7-7h-34.9V166l53.2-45.6c7.2,3.4,15.1,5.3,23.6,5.3c30.8,0,55.8-25,55.8-55.8
			C279.2,39,254.2,14,223.3,14L223.3,14z"/>
	</g>
</g>
</svg>
