<?xml version="1.0" encoding="utf-8"?>
<!-- Generator: Adobe Illustrator 25.2.3, SVG Export Plug-In . SVG Version: 6.00 Build 0)  -->
<svg version="1.1" id="Camada_1" xmlns="http://www.w3.org/2000/svg" xmlns:xlink="http://www.w3.org/1999/xlink" x="0px" y="0px"
	 viewBox="0 0 178 248" style="enable-background:new 0 0 178 248;" xml:space="preserve">
<style type="text/css">
	.st0{fill:url(#SVGID_1_);}
	.st1{clip-path:url(#SVGID_3_);}
</style>
<linearGradient id="SVGID_1_" gradientUnits="userSpaceOnUse" x1="9.9" y1="958.6" x2="178" y2="958.6" gradientTransform="matrix(1 0 0 1 0 -830)">
	<stop  offset="0" style="stop-color:#007099"/>
	<stop  offset="1" style="stop-color:#686868"/>
</linearGradient>
<path class="st0" d="M99.9,247.8H62.3c-43.1,0-52.4-26-52.4-69.1V96.4c0-43.1,9.3-87,52.4-87h37.6c43.1,0,78.1,35,78.1,78.1v82.3
	C178,212.8,143,247.8,99.9,247.8z"/>
<g>
	<g>
		<g>
			<defs>
				<path id="SVGID_2_" d="M90.4,238.2H52.8c-43.1,0-52.4-26-52.4-69.1V86.8c0-43.1,9.3-87,52.4-87h37.6c43.1,0,78.1,35,78.1,78.1
					v82.3C168.4,203.3,133.5,238.2,90.4,238.2z"/>
			</defs>
			<clipPath id="SVGID_3_">
				<use xlink:href="#SVGID_2_"  style="overflow:visible;"/>
			</clipPath>
			<g transform="matrix(1 0 0 1 0 4.768372e-07)" class="st1">
				
					<image style="overflow:visible;enable-background:new    ;" width="690" height="388" xlink:href="Guliver.jpeg"  transform="matrix(1.2565 0 0 1.2565 -421.3109 -5.213)">
				</image>
			</g>
		</g>
	</g>
</g>
</svg>
