<?xml version="1.0" encoding="utf-8"?>
<!-- Generator: Adobe Illustrator 25.2.3, SVG Export Plug-In . SVG Version: 6.00 Build 0)  -->
<svg version="1.1" id="Camada_1" xmlns="http://www.w3.org/2000/svg" xmlns:xlink="http://www.w3.org/1999/xlink" x="0px" y="0px"
	 viewBox="0 0 178 248" style="enable-background:new 0 0 178 248;" xml:space="preserve">
<style type="text/css">
	.st0{fill:url(#SVGID_1_);}
	.st1{fill:url(#SVGID_2_);}
	.st2{clip-path:url(#SVGID_4_);}
</style>
<g>
	
		<linearGradient id="SVGID_1_" gradientUnits="userSpaceOnUse" x1="10" y1="958.45" x2="178.1" y2="958.45" gradientTransform="matrix(1 0 0 1 0 -830)">
		<stop  offset="0" style="stop-color:#007099"/>
		<stop  offset="1" style="stop-color:#686868"/>
	</linearGradient>
	<path class="st0" d="M100,247.7H62.4c-43.1,0-52.4-26-52.4-69.1V96.2c0-43.1,9.3-87,52.4-87H100c43.1,0,78.1,35,78.1,78.1v82.3
		C178.1,212.7,143.1,247.7,100,247.7z"/>
	
		<linearGradient id="SVGID_2_" gradientUnits="userSpaceOnUse" x1="0.5" y1="948.9" x2="168.6" y2="948.9" gradientTransform="matrix(1 0 0 1 0 -830)">
		<stop  offset="0" style="stop-color:#007099"/>
		<stop  offset="1" style="stop-color:#54AAF7"/>
	</linearGradient>
	<path class="st1" d="M90.4,238.1H52.9c-43.1,0-52.4-26-52.4-69.1V86.7c0-43.1,9.3-87,52.4-87h37.6c43.1,0,78.1,35,78.1,78.1V160
		C168.5,203.2,133.6,238.1,90.4,238.1z"/>
	<g>
		<g>
			<g>
				<defs>
					<path id="SVGID_3_" d="M90.4,238.1H52.9c-43.1,0-52.4-26-52.4-69.1V86.7c0-43.1,9.3-87,52.4-87h37.6c43.1,0,78.1,35,78.1,78.1
						V160C168.5,203.2,133.6,238.1,90.4,238.1z"/>
				</defs>
				<clipPath id="SVGID_4_">
					<use xlink:href="#SVGID_3_"  style="overflow:visible;"/>
				</clipPath>
				<g class="st2">
					
						<image style="overflow:visible;enable-background:new    ;" width="184" height="387" xlink:href="Raymond_NH_1.png"  transform="matrix(0.6522 0 0 0.6522 24.2495 30.6568)">
					</image>
				</g>
			</g>
		</g>
	</g>
</g>
</svg>
