<?xml version="1.0" encoding="utf-8"?>
<!-- Generator: Adobe Illustrator 25.2.3, SVG Export Plug-In . SVG Version: 6.00 Build 0)  -->
<svg version="1.1" id="Camada_1" xmlns="http://www.w3.org/2000/svg" xmlns:xlink="http://www.w3.org/1999/xlink" x="0px" y="0px"
	 viewBox="0 0 178 248" style="enable-background:new 0 0 178 248;" xml:space="preserve">
<style type="text/css">
	.st0{fill:url(#SVGID_1_);}
	.st1{fill:url(#SVGID_2_);}
	.st2{fill:url(#SVGID_3_);}
	.st3{fill:url(#SVGID_4_);}
	.st4{clip-path:url(#SVGID_6_);}
</style>
<g>
	
		<linearGradient id="SVGID_1_" gradientUnits="userSpaceOnUse" x1="10" y1="121.05" x2="178.1" y2="121.05" gradientTransform="matrix(1 0 0 -1 0 250)">
		<stop  offset="0" style="stop-color:#007099"/>
		<stop  offset="1" style="stop-color:#686868"/>
	</linearGradient>
	<path class="st0" d="M100,248.2H62.4c-43.1,0-52.4-26-52.4-69.1V96.7c0-43.1,9.3-87,52.4-87H100c43.1,0,78.1,35,78.1,78.1v82.3
		C178.1,213.2,143.1,248.2,100,248.2z"/>
	<g>
		
			<linearGradient id="SVGID_2_" gradientUnits="userSpaceOnUse" x1="0.5" y1="130.6" x2="168.6" y2="130.6" gradientTransform="matrix(1 0 0 -1 0 250)">
			<stop  offset="0" style="stop-color:#007099"/>
			<stop  offset="1" style="stop-color:#102C74"/>
		</linearGradient>
		<path class="st1" d="M90.4,238.6H52.9c-43.1,0-52.4-26-52.4-69.1V87.2c0-43.1,9.3-87,52.4-87h37.6c43.1,0,78.1,35,78.1,78.1v82.3
			C168.5,203.7,133.6,238.6,90.4,238.6z"/>
	</g>
	<g>
		
			<linearGradient id="SVGID_3_" gradientUnits="userSpaceOnUse" x1="0.5" y1="130.6" x2="168.6" y2="130.6" gradientTransform="matrix(1 0 0 -1 0 250)">
			<stop  offset="0" style="stop-color:#007099"/>
			<stop  offset="1" style="stop-color:#102C74"/>
		</linearGradient>
		<path class="st2" d="M90.4,238.6H52.9c-43.1,0-52.4-26-52.4-69.1V87.2c0-43.1,9.3-87,52.4-87h37.6c43.1,0,78.1,35,78.1,78.1v82.3
			C168.5,203.7,133.6,238.6,90.4,238.6z"/>
	</g>
	<g>
		
			<linearGradient id="SVGID_4_" gradientUnits="userSpaceOnUse" x1="0.5" y1="130.6" x2="168.6" y2="130.6" gradientTransform="matrix(1 0 0 -1 0 250)">
			<stop  offset="0" style="stop-color:#007099"/>
			<stop  offset="1" style="stop-color:#102C74"/>
		</linearGradient>
		<path class="st3" d="M90.4,238.6H52.9c-43.1,0-52.4-26-52.4-69.1V87.2c0-43.1,9.3-87,52.4-87h37.6c43.1,0,78.1,35,78.1,78.1v82.3
			C168.5,203.7,133.6,238.6,90.4,238.6z"/>
	</g>
	<g>
		<g>
			<defs>
				<path id="SVGID_5_" d="M90.4,238.6H52.9c-43.1,0-52.4-26-52.4-69.1V87.2c0-43.1,9.3-87,52.4-87h37.6c43.1,0,78.1,35,78.1,78.1
					v82.3C168.5,203.7,133.6,238.6,90.4,238.6z"/>
			</defs>
			<clipPath id="SVGID_6_">
				<use xlink:href="#SVGID_5_"  style="overflow:visible;"/>
			</clipPath>
			<g class="st4">
				
					<image style="overflow:visible;enable-background:new    ;" width="564" height="984" xlink:href="Maple_NH.png"  transform="matrix(0.2443 0 0 0.2443 15 38)">
				</image>
			</g>
		</g>
	</g>
</g>
</svg>
