<?xml version="1.0" encoding="utf-8"?>
<!-- Generator: Adobe Illustrator 24.1.0, SVG Export Plug-In . SVG Version: 6.00 Build 0)  -->
<svg version="1.1" id="Camada_1" xmlns="http://www.w3.org/2000/svg" xmlns:xlink="http://www.w3.org/1999/xlink" x="0px" y="0px"
	 viewBox="0 0 876.3 275.1" style="enable-background:new 0 0 876.3 275.1;" xml:space="preserve">
<style type="text/css">
	.st0{fill:#F0D75C;}
	.st1{fill:#FFFFFF;}
</style>
<g>
	<path class="st0" d="M490.9,164.7c-2.7,1.4-5.2,2.9-7.8,4.1c-5.1,2.4-10.4,3.2-16,2.1c-8.1-1.7-12.9-6.8-15.2-14.5
		c-2-6.8-1.5-13.8-0.6-20.7c1.1-8.4,3.5-16.4,7.9-23.7c5-8.3,11.7-14.6,21.3-17.3c5-1.4,10.1-1.3,15.2-0.9
		c6.9,0.6,13.5,2.3,20.1,4.2c1.7,0.5,2,1.1,1.7,2.9c-2,11.5-3.9,23-6,34.5c-1.9,10.4-3.5,20.8-3.7,31.4c0,2.7-0.4,3-3.1,3
		c-3.6,0-7.2,0-10.8,0c-2,0-2.4-0.4-2.7-2.4C491.2,166.5,491.1,165.7,490.9,164.7z M469.1,144.3c0.2,1.6,0.3,3.6,0.8,5.6
		c1.2,5.3,4.6,7.3,9.9,5.9c3.6-0.9,6.6-3,9.5-5.2c1-0.7,1.4-1.6,1.6-2.8c1.1-6.7,2.2-13.4,3.3-20.1c0.9-5.5,1.8-11,2.7-16.4
		c0.1-0.4-0.2-1.3-0.4-1.4c-4-1.2-8.1-2.2-12.3-0.9c-4.7,1.4-7.6,4.8-9.6,9.1C470.8,126.2,469.9,135,469.1,144.3z"/>
	<path class="st0" d="M380.2,75.7c-1.2,6.9-2.3,13.5-3.5,20.1c-2.9,16.7-5.8,33.4-8.7,50c-1.2,7-2.4,14.1-3.7,21.1
		c-0.4,2.3-0.8,2.7-3.1,2.7c-4.5,0-9.1,0-13.6,0c-2.5,0-2.9-0.5-2.5-2.9c4.3-24.8,8.6-49.6,12.9-74.4c0.8-4.9,1.7-9.7,2.5-14.6
		c0.1-0.6,0.2-1.2,0.3-2c-0.6,0-1.2-0.1-1.7-0.1c-7.1,0-14.1,0-21.2,0c-2.4,0-2.9-0.6-2.5-2.9c0.7-3.5,1.3-7.1,2-10.6
		c0.4-2.2,0.8-2.5,3.1-2.5c3.8,0,7.5,0,11.3,0c18,0,35.9,0,53.9,0c0.5,0,1,0,1.5,0c1.3,0.1,2,0.8,1.8,2.1c-0.8,4.1-1.6,8.2-2.4,12.3
		c-0.3,1.5-1.5,1.6-2.8,1.6c-7.3,0-14.5,0-21.8,0C381.5,75.7,380.9,75.7,380.2,75.7z"/>
	<path class="st0" d="M616,141.2c-0.1,3.4-0.1,6.7,1.3,9.8c1.3,2.9,3.7,4.2,6.6,4.7c4.8,0.9,9.5,0,14-1.3c2.5-0.7,4.9-1.6,7.3-2.4
		c1.9-0.6,2.5-0.4,3.1,1.5c0.9,3.1,1.7,6.3,2.6,9.4c0.4,1.3,0.1,2.3-1.2,2.9c-9.5,3.8-19.4,6.1-29.7,5.4
		c-11.1-0.8-18.6-7.1-20.7-18.1c-3.1-15.4-1.2-30.2,7.2-43.7c7.8-12.6,21.8-18.3,36.4-15.1c9.9,2.2,16.5,10.5,16.5,21
		c0,6.8-1.6,13.1-6.6,18.1c-4.2,4.2-9.6,6.2-15.3,7.3c-6.6,1.3-13.2,1.2-19.9,0.7C617,141.2,616.6,141.2,616,141.2z M617.6,127.6
		c5,0.6,9.8,1,14.7-0.2c6.3-1.5,8.8-6,8-12.3c-0.7-5.7-4.3-7.8-9.9-6.2c-0.2,0.1-0.4,0.1-0.6,0.2
		C622.2,111.4,617.8,121.5,617.6,127.6z"/>
	<path class="st0" d="M772.5,141.3c0.2,2.5,0.3,4.9,0.7,7.3c0.7,4,3.3,6.4,7.3,7.1c4.8,0.9,9.5,0,14-1.3c2.5-0.7,4.9-1.6,7.3-2.4
		c2-0.7,2.6-0.4,3.2,1.6c0.9,3.1,1.7,6.3,2.5,9.4c0.3,1.2,0.1,2.3-1.2,2.8c-9.5,3.8-19.3,6.1-29.6,5.4c-11.2-0.8-18.6-6.9-20.9-17.9
		c-3.2-15.6-1.3-30.6,7.3-44.3c7.8-12.4,21.5-17.8,35.8-14.8c10.2,2.1,16.8,10.4,16.9,21c0,7.3-1.9,14-7.6,19
		c-4.1,3.6-9.1,5.4-14.4,6.4c-6.2,1.2-12.5,1.2-18.8,0.7c-0.6,0-1.2-0.1-1.9-0.1C773.1,141.2,773,141.2,772.5,141.3z M774.2,127.5
		c4.8,0.6,9.4,0.9,13.9,0c6.4-1.2,9.7-5.8,9-12.3c-0.6-5.5-3.9-7.8-9.4-6.6c-0.4,0.1-0.8,0.2-1.2,0.3c-4.8,1.7-7.7,5.3-9.8,9.7
		C775.4,121.4,774.5,124.3,774.2,127.5z"/>
	<path class="st0" d="M555.1,149.4c2-4.6,4-9.1,6.1-13.7c6-13.2,12-26.3,17.9-39.5c0.6-1.3,1.5-2,3-2c4.6,0,9.2,0,13.8,0
		c2.1,0,2.6,0.8,1.6,2.7c-9.9,19.6-19.7,39.3-29.6,58.9c-2,4-4,7.9-5.9,11.9c-0.7,1.4-1.6,2-3.2,1.9c-5.2-0.1-10.4,0-15.6,0
		c-2,0-2.5-0.4-2.8-2.4c-2.2-14.7-4.4-29.3-6.6-44c-1.3-8.7-2.6-17.4-4-26.1c-0.4-2.4,0.1-2.9,2.6-3c4.6,0,9.2,0,13.8,0
		c2.6,0,2.9,0.2,3.2,2.8c1.4,12.6,2.9,25.2,4.2,37.7c0.5,4.8,0.9,9.7,1.3,14.6C555,149.3,555,149.4,555.1,149.4z"/>
	<path class="st0" d="M729,170.6c-1.1,0-2.2,0.1-3.2,0c-7.1-0.5-11.1-4.3-11.9-11.4c-0.6-5,0.2-9.9,1.1-14.7c4-22.4,8-44.9,12-67.3
		c1-5.6,2.1-11.2,3-16.9c0.3-1.6,1.1-2.5,2.7-2.7c4.8-0.8,9.5-1.7,14.3-2.5c2.1-0.4,2.7,0.3,2.3,2.4c-2.3,13.1-4.7,26.2-7,39.4
		c-2.8,15.9-5.6,31.7-8.3,47.6c-0.4,2.5-0.7,5.1-0.7,7.7c0,3.2,1.2,4.2,4.4,4.4c2.6,0.2,3.3,1,2.8,3.5c-0.5,2.6-0.9,5.2-1.4,7.8
		c-0.2,1.4-1,2.2-2.4,2.3c-2.5,0.3-5,0.5-7.5,0.8C729,170.7,729,170.7,729,170.6z"/>
	<path class="st0" d="M685.2,170.8c-1.9-0.2-4.1-0.3-6.1-0.8c-4.5-1.1-7.2-4.1-8.2-8.5c-1.2-5.1-0.6-10.2,0.3-15.3
		c1.9-11,3.9-22,5.8-33c3.1-17.4,6.2-34.8,9.4-52.3c0.5-2.7,0.8-3,3.6-3.5c4.4-0.8,8.7-1.6,13.1-2.4c2.4-0.4,3.1,0.2,2.7,2.6
		c-2.3,13.2-4.7,26.3-7,39.5c-2.9,16.3-5.8,32.6-8.6,49c-0.4,2.1-0.5,4.2-0.4,6.3c0.1,2.6,1.2,3.7,3.8,3.9c0.5,0.1,1,0,1.5,0.1
		c1.3,0.2,2.1,1.2,1.9,2.5c-0.5,3-1,6-1.5,9c-0.2,1.2-1,1.9-2.2,2.1C690.7,170.2,688.1,170.5,685.2,170.8z"/>
	<path class="st0" d="M423.3,102.6c2.6-1.9,4.9-3.8,7.4-5.4c4.5-2.9,9.4-4.1,14.7-3.9c2.3,0.1,2.8,0.9,2.4,3c-1,4.6-2,9.2-3,13.7
		c-0.4,1.8-0.9,2.3-2.5,2c-6.4-1.3-11.5,1.2-16.4,5.1c-2.9,2.3-4.2,5.1-4.8,8.7c-2.3,13.9-4.9,27.8-7.3,41.7c-0.3,1.5-1,2.2-2.6,2.2
		c-4.6,0-9.2,0-13.8,0c-2,0-2.4-0.7-2.1-2.6c2.7-15.5,5.4-30.9,8.2-46.4c1.5-7.9,2.3-15.8,2.8-23.7c0.1-1.7,0.6-2.3,2.4-2.4
		c3.9-0.2,7.8-0.5,11.7-0.6c1.7-0.1,2.2,0.4,2.4,2.1C423.1,98.2,423.2,100.3,423.3,102.6z"/>
	<path class="st0" d="M851.6,102.4c3.3-2.2,6.3-4.5,9.6-6.4c4-2.3,8.4-3,13-2.7c1.7,0.1,2.4,0.8,2,2.5c-1,4.9-2.1,9.9-3.2,14.8
		c-0.2,1.2-1,1.7-2.1,1.5c-7.5-1.6-13.1,1.8-18.2,6.6c-1.5,1.4-2.4,3-2.7,5.1c-2.5,14.5-5.1,28.9-7.6,43.3c-0.4,2.2-0.9,2.6-3,2.6
		c-4.3,0-8.7,0-13,0c-2.4,0-2.9-0.5-2.4-2.9c1.9-10.5,3.7-21.1,5.6-31.6c1.5-8.5,3.1-16.9,4.4-25.4c0.6-4,0.6-8.1,0.9-12.2
		c0.2-2.6,0.6-3,3.2-3.1c3.6-0.2,7.2-0.4,10.8-0.6c2-0.1,2.5,0.4,2.6,2.5C851.4,98.4,851.5,100.5,851.6,102.4z"/>
	<path class="st1" d="M463.2,214c0.4,0.2,0.7,0.3,1,0.4c3.9,1.6,5.8,4.8,5.3,8.9c-0.4,4-3.2,6.9-7.2,7.6c-1.6,0.3-3.3,0.2-5,0.3
		c-2.7,0-5.5,0-8.2,0c-0.8,0-1.1-0.2-1.1-1c0-9.8,0-19.6,0-29.5c0-0.6,0.1-1,0.8-1c3.7,0.1,7.3-0.1,11,0.2c3.2,0.2,5.5,1.9,6.6,5
		c0.9,2.8,0.6,5.4-1.5,7.7C464.4,213,463.9,213.4,463.2,214z M451.3,228.1c3.5,0,6.8,0.2,10.1-0.1c2-0.1,3.3-1.6,4-3.6
		c1.3-4-0.8-7.8-5.1-8.3c-2.6-0.4-5.4-0.2-8-0.3c-0.8,0-1,0.2-1,1c0,3,0,6.1,0,9.1C451.3,226.7,451.3,227.4,451.3,228.1z
		 M451.3,207.8c0,1.5,0,3.1,0,4.6c0,0.6,0.1,0.8,0.8,0.8c2.1,0,4.2,0.1,6.3-0.1c3-0.2,5.1-2.7,5-5.8c-0.1-2.9-2-4.8-5.1-4.9
		c-2-0.1-4,0-6,0c-0.8,0-0.9,0.3-0.9,1C451.4,204.9,451.3,206.3,451.3,207.8z"/>
	<path class="st1" d="M535.3,228.3c-2.8,2-5.9,3-9.1,3.2c-6.8,0.5-12.5-3.3-14.6-9.8c-1.5-4.7-1.4-9.4,0.7-13.9
		c2.7-5.9,7.7-8.4,14-8.4c3.7,0,7.1,1.2,10.2,3.3c0.8,0.5,1,1,0.4,1.7c-0.2,0.2-0.3,0.4-0.4,0.6c-0.3,0.7-0.7,0.7-1.4,0.3
		c-2.1-1.5-4.4-2.5-7-2.8c-6.9-0.9-12.3,2.9-13.6,9.7c-0.7,3.4-0.5,6.8,1,10c2.7,5.9,8.8,8.2,15,5.6c0.6-0.3,1.2-0.5,1.8-0.9
		c2.1-1.1,3.4-2.6,3-5.2c-0.1-1-0.1-2,0-3c0-0.7-0.2-0.9-0.9-0.9c-2.3,0-4.5,0-6.8,0c-0.9,0-1.3-0.3-1.2-1.2c0-0.3-0.1-0.7,0-0.9
		c0.1-0.3,0.4-0.7,0.7-0.7c3.5,0,7.1,0,10.6,0c0.8,0,0.8,0.5,0.8,1.1c0,4.7,0,9.3,0,14c0,0,0,0.1,0,0.1c0.1,0.7-0.2,1-1,1
		c-1.7,0-1.7,0-2-1.7C535.5,229.1,535.4,228.8,535.3,228.3z"/>
	<path class="st1" d="M771.5,220.7c-0.1,5.5,3.9,8.9,9.3,7.9c1.3-0.3,2.6-0.7,3.9-1.2c1.4-0.6,1.3,0.7,1.8,1.3
		c0.6,0.7-0.1,1-0.6,1.2c-2.8,1.3-5.7,2-8.8,1.6c-4.6-0.6-7.7-3.3-8.7-7.8c-0.8-3.6-0.5-7,1.5-10.1c2.3-3.5,6.8-5,11.1-3.9
		c4,1.1,6.7,4.3,7,8.6c0.2,2.4,0.2,2.4-2.2,2.4c-4.4,0-8.7,0-13.1,0C772.4,220.7,772,220.7,771.5,220.7z M784.5,218.2
		c0-3.3-2.5-5.9-5.8-6.1c-3.8-0.2-6.7,2.3-7,6.1C776,218.2,780.2,218.2,784.5,218.2z"/>
	<path class="st1" d="M821,220.7c-0.1,5.5,3.9,8.9,9.2,7.9c1.3-0.3,2.6-0.8,3.9-1.2c0.9-0.3,1.3,0,1.9,1.4c0.3,0.8-0.3,0.9-0.7,1.1
		c-3.4,1.5-7,2.3-10.7,1.2c-4.4-1.3-6.5-4.5-7-8.9c-0.4-3.1,0-6.1,1.8-8.8c2.2-3.2,6.4-4.8,10.5-3.9c4,0.8,6.7,3.7,7.5,7.7
		c0.1,0.8,0.2,1.7,0.3,2.5c0.1,0.8-0.3,1.1-1.1,1.1c-4.8,0-9.5,0-14.3,0C821.9,220.7,821.5,220.7,821,220.7z M821.2,218.2
		c4.2,0,8.5,0,12.7,0c0.3-3.1-2.4-5.9-5.7-6.1C824.4,211.9,821.2,214.6,821.2,218.2z"/>
	<path class="st1" d="M631.1,220.7c-0.4,5.3,3.9,8.9,9.2,7.9c1.3-0.3,2.6-0.7,3.9-1.2c0.9-0.3,1.2-0.1,1.9,1.3
		c0.4,0.8-0.3,1-0.8,1.2c-2.9,1.3-5.9,2-9.2,1.5c-4.3-0.6-7.4-3.6-8.2-7.8c-0.6-3.4-0.5-6.7,1.3-9.7c2.2-3.6,6.5-5.3,10.8-4.4
		c4.3,0.9,7.1,4.2,7.6,8.5c0.3,2.7,0.3,2.7-2.4,2.7c-4.3,0-8.5,0-12.8,0C632,220.7,631.6,220.7,631.1,220.7z M631.2,218.2
		c4.3,0,8.5,0,12.8,0c0.2-3.2-2.4-5.9-5.7-6.1C634.5,211.8,631.5,214.4,631.2,218.2z"/>
	<path class="st1" d="M737.6,218.4c0-0.9,0.1-1.8,0-2.6c-0.3-2.2-1.8-3.5-4.4-3.7c-2.3-0.2-4.5,0.3-6.5,1.3
		c-0.8,0.4-1.1,0.2-1.4-0.6c-0.6-1.6-0.7-1.6,1-2.2c3.2-1.3,6.4-1.9,9.8-0.9c3,0.9,4.8,3.1,4.9,6.3c0.1,3,0,5.9,0,8.9
		c0,0.5,0,1,0.1,1.6c0.2,1.6,0.9,2.2,2.6,2.3c0.7,0,1.1,0.2,1,1c-0.1,0.7,0.2,1.4-0.9,1.5c-2.4,0.2-4.4,0.2-5.7-2.9
		c-0.2,0.2-0.5,0.4-0.7,0.6c-3,2.4-6.3,3.2-10,2c-2.1-0.7-3.3-2.3-3.5-4.5c-0.3-2.3,0.4-4.5,2.5-5.7c1.5-0.8,3.2-1.4,4.9-1.7
		C733.3,218.6,735.4,218.6,737.6,218.4z M737.6,220.9c-2.4,0.2-4.6,0.4-6.7,0.7c-0.7,0.1-1.4,0.5-2,0.8c-1.3,0.8-2,2.5-1.6,4
		c0.3,1.4,1.3,2.2,3,2.4c2.5,0.2,4.8-0.6,6.6-2.4c0.4-0.4,0.8-1,0.8-1.5C737.7,223.7,737.6,222.5,737.6,220.9z"/>
	<path class="st1" d="M481.4,227.5c1.1-2.7,2.1-5.2,3.1-7.7c1.2-3.1,2.5-6.1,3.7-9.2c0.3-0.8,0.7-1.1,1.6-1c0.7,0.1,1.4,0,2.2,0
		c-0.2,0.5-0.2,0.9-0.4,1.2c-3.7,8.8-7.4,17.7-11.2,26.5c-0.6,1.3-1.4,2.6-2.3,3.7c-1.8,2.1-4.2,2.5-6.8,2.3c-0.2,0-0.5-0.4-0.6-0.7
		c-0.1-0.3,0.1-0.7,0.1-1c0-0.6,0.3-0.9,1-0.9c2.8,0.1,4.5-1.3,5.6-3.7c0.6-1.5,1.4-3,2-4.5c0.2-0.5,0.2-1.1,0.1-1.6
		c-2.4-6.6-4.9-13.3-7.4-19.9c-0.4-1.2-0.4-1.3,0.8-1.3c2.7,0,2.2-0.4,3,2.1c1.8,5.1,3.5,10.1,5.3,15.2
		C481.2,227,481.3,227.2,481.4,227.5z"/>
	<path class="st1" d="M560.4,229c-2.7,1.9-5.5,2.7-8.7,2.4c-4.6-0.4-7.1-3.2-7.2-7.8c0-4.2,0-8.4,0-12.6c0-1,0.2-1.4,1.3-1.3
		c2.4,0.1,2.1-0.2,2.1,2.2c0,3.8,0,7.6,0,11.4c0,3.3,1.4,5,4.7,5.4c2,0.3,4-0.2,5.7-1.3c1.2-0.8,1.9-1.8,1.9-3.4
		c-0.1-4.3,0-8.6-0.1-13c0-1,0.3-1.3,1.3-1.2c2.3,0.1,2.1-0.3,2.1,2.1c0,6.1,0,12.1,0,18.2c0,0.5,0.2,1.2-0.7,1.3
		c-1.7,0.1-1.9,0-2.1-1.1C560.7,229.8,560.6,229.4,560.4,229z"/>
	<path class="st1" d="M697.2,202.5c0,0.6,0,1,0,1.5c0,8.6,0,17.2,0,25.8c0,1.4,0,1.4-1.4,1.4c-2.2,0-2,0.3-2-2c0-8.5,0-17,0-25.5
		c0-0.9-0.2-1.2-1.2-1.2c-2.6,0.1-5.2,0-7.9,0c-0.9,0-1.2-0.3-1.2-1.2c0-1.7,0-1.7,1.6-1.7c6.9,0,13.8,0,20.7,0
		c0.4,0,1.2,0.2,1.3,0.3c0.1,0.7,0.1,1.5,0,2.3c0,0.1-0.6,0.2-0.9,0.2c-2.6,0-5.1,0-7.7,0C698.1,202.5,697.7,202.5,697.2,202.5z"/>
	<path class="st1" d="M755.3,227.6c1.3-3.3,2.5-6.4,3.8-9.5c1-2.6,2.1-5.1,3.1-7.7c0.3-0.7,0.7-1,1.4-0.9c0.7,0.1,1.4,0,2.2,0
		c-0.2,0.6-0.3,0.9-0.4,1.3c-2.7,6.4-5.4,12.9-8.1,19.3c-0.3,0.7-0.7,1-1.5,1c-2.9-0.1-2.3,0.5-3.4-2.3c-2.2-6-4.5-11.9-6.7-17.9
		c-0.5-1.2-0.4-1.3,0.9-1.3c2.8,0,2.1-0.4,3,2.1c1.8,5.1,3.5,10.1,5.3,15.2C755.1,227.1,755.2,227.3,755.3,227.6z"/>
	<path class="st1" d="M604.9,209.6c1.2,0,2.2-0.1,3.1,0c0.3,0,0.6,0.5,0.7,0.8c1.9,5.2,3.7,10.5,5.5,15.8c0.2,0.4,0.3,0.9,0.5,1.5
		c0.9-2.2,1.6-4.2,2.4-6.1c1.4-3.6,2.9-7.1,4.3-10.7c0.4-1,0.9-1.4,1.9-1.3c0.6,0.1,1.1,0,2,0c-0.6,1.4-1,2.5-1.5,3.6
		c-2.4,5.7-4.7,11.3-7.1,17c-0.3,0.8-0.7,1-1.6,1c-2.4,0-2.4,0-3.2-2.2c-2.2-6-4.5-11.9-6.7-17.9
		C605.3,210.7,605.2,210.3,604.9,209.6z"/>
	<path class="st1" d="M573.8,212.9c0,3.9,0,7.7,0,11.6c0,0.5,0,1,0.1,1.5c0.2,1.8,0.9,2.4,2.7,2.7c0.2,0,0.5,0.1,0.7,0.1
		c1.1,0.1,1.7,1,1.3,2c-0.1,0.2-0.4,0.4-0.6,0.4c-1.4,0-2.8,0-4.2-0.3c-1.8-0.3-2.7-1.6-3.1-3.3c-0.2-0.8-0.2-1.7-0.2-2.5
		c0-8,0-16.1,0-24.1c0-1,0.3-1.4,1.3-1.6c2.2-0.3,2.1-0.7,2.1,1.8C573.8,205.1,573.8,209,573.8,212.9z"/>
	<path class="st1" d="M586.6,212.9c0,3.7,0,7.3,0,11c0,0.3,0,0.6,0,0.9c0,3.1,0.6,3.7,3.7,3.9c0.8,0,1,0.3,1,1.1
		c0,1.3,0,1.4-1.3,1.4c-1.1,0-2.3-0.1-3.4-0.3c-1.9-0.4-3-1.7-3.3-3.6c-0.1-0.8-0.2-1.6-0.2-2.4c0-7.9,0-15.9,0-23.8
		c0-1.2,0.4-1.6,1.5-1.7c1.9-0.3,1.9-0.3,1.9,1.6C586.6,204.9,586.6,208.9,586.6,212.9z"/>
	<path class="st1" d="M793.5,213.2c0-4.1,0-8.2,0-12.3c0-0.9,0.2-1.4,1.2-1.5c2.3-0.3,2.2-0.7,2.2,1.8c0,7.7,0,15.3,0,23
		c0,0.3,0,0.6,0,0.9c0.1,2.8,0.8,3.5,3.5,3.7c1,0.1,1.7,1.3,1.1,2.1c-0.1,0.2-0.4,0.3-0.6,0.3c-1.4-0.1-2.8,0-4.2-0.3
		c-1.7-0.3-2.7-1.5-3-3.2c-0.2-0.9-0.2-1.8-0.2-2.7C793.5,221,793.5,217.1,793.5,213.2z"/>
	<path class="st1" d="M809.6,212.9c0,3.8,0,7.7,0,11.5c0,0.3,0,0.6,0,0.9c0.1,2.5,0.8,3.2,3.4,3.4c1.3,0.1,1.8,0.8,1.4,2
		c-0.1,0.2-0.4,0.5-0.6,0.5c-1.3,0-2.7,0.1-3.9-0.2c-2.1-0.4-3.1-1.7-3.4-3.8c-0.1-0.8-0.1-1.6-0.1-2.4c0-7.8,0-15.7,0-23.5
		c0-1.6,0-1.6,1.5-1.9c1.8-0.3,1.8-0.3,1.8,1.5C809.6,204.8,809.6,208.9,809.6,212.9z"/>
	<path class="st1" d="M711.1,212.7c0.6-0.5,1.2-0.9,1.7-1.4c2.3-2,4.9-2.3,7.7-1.4c0.3,0.1,0.4,0.6,0.5,0.9c0,0,0,0.1,0,0.1
		c-0.3,2.1-0.3,2.1-2.4,1.7c-3.8-0.7-7.2,2.3-7.3,6.4c0,3.6,0,7.2,0,10.9c0,0.9-0.2,1.3-1.2,1.3c-2.3-0.1-2.1,0.3-2.1-2.1
		c0-6,0-12,0-18.1c0-0.7-0.1-1.4,1-1.4c1.8,0,1.8,0,1.9,1.3C711,211.6,711.1,212.2,711.1,212.7z"/>
	<path class="st1" d="M846,213.1c1.5-1.9,3-3.4,5.2-3.6c1.4-0.1,2.8,0.1,4.2,0.3c0.2,0,0.5,0.5,0.5,0.8c0,0.5-0.2,1-0.3,1.5
		c-0.1,0.6-0.4,0.7-1,0.6c-1.1-0.2-2.2-0.4-3.2-0.2c-3,0.4-5.2,3.2-5.2,6.4c0,3.6,0,7.2,0,10.8c0,1-0.3,1.4-1.3,1.3
		c-2.3-0.1-2,0.3-2-2.1c0-6.1,0-12.1,0-18.2c0-0.6-0.1-1.3,0.9-1.3c1.7,0,1.8,0,2,1.1C845.9,211.4,845.9,212.1,846,213.1z"/>
	<path class="st1" d="M656.1,213.1c0.6-0.7,1-1.2,1.5-1.6c2.3-2.2,5-2.5,7.9-1.6c0.3,0.1,0.6,0.6,0.6,0.9c-0.2,2.2-0.2,2.2-2.4,1.9
		c-3.8-0.6-7.2,2.4-7.2,6.5c0,3.6,0,7.2,0,10.8c0,1-0.3,1.3-1.3,1.3c-2.2-0.1-2,0.3-2-2c0-6.1,0-12.1,0-18.2c0-0.4,0.2-1.2,0.4-1.3
		c0.7-0.1,1.4-0.1,2.2,0c0.1,0,0.3,0.5,0.3,0.7C655.9,211.2,656,212,656.1,213.1z"/>
	<path class="st1" d="M596.6,212.1c-0.9,0-1.6,0-2.3,0c-0.9,0-0.8-0.5-0.8-1.1c0-0.6-0.3-1.4,0.8-1.4c1.6,0,3.3,0,4.9,0
		c0.7,0,0.8,0.4,0.8,1c0,1.8,0,3.7,0,5.5c0,4.6,0,9.2,0,13.8c0,0.9-0.3,1.3-1.2,1.3c-2.4-0.1-2.1,0.3-2.1-2.1c0-5.2,0-10.4,0-15.6
		C596.6,213.1,596.6,212.7,596.6,212.1z"/>
	<path class="st1" d="M598,205.2c-1.5,0-2.5-1-2.5-2.4c0-1.4,1-2.4,2.5-2.4c1.5,0,2.6,1,2.6,2.4C600.5,204.2,599.5,205.2,598,205.2z
		"/>
	<path class="st1" d="M241.4,227.9c-13.4,15.5-29.5,27.3-48.3,35.6c-12,5.3-24.5,8.8-37.5,10.5c-15.8,2.1-31.5,1.4-47-2
		c-15.4-3.4-29.8-9.1-43.2-17.3c-13.7-8.4-25.6-19-35.7-31.6c-7.2-9-13.2-18.8-17.9-29.4c-4.9-11.1-8.3-22.7-10.2-34.7
		c-2.1-13.5-2.2-27-0.3-40.4c2.3-16.5,7.6-32.1,15.6-46.7c8.5-15.5,19.6-28.9,33.2-40.2c9.2-7.6,19.2-13.8,30-18.8
		c10.4-4.9,21.4-8.2,32.7-10.3c19.8-3.7,39.6-3.1,59.2,1.9c15.8,4.1,30.3,10.8,43.7,20.1c12.7,8.9,23,20.1,31.1,33.4
		c7.9,14.4-15-6.4-34.4-19.9c-17-11.9-35.6-20.1-56.2-23.2c-10.7-1.6-21.5-2-32.2-0.5c-5.7,0.8-11.5,1.5-17.1,3
		c-9.6,2.4-18.8,6-27.5,10.7C53.2,42,34.5,62.9,23,90.3c-6.6,15.7-9.8,32.2-9.5,49.2c0.2,13.5,2.6,26.6,7.1,39.4
		c5.6,15.8,14,30,25.3,42.3c12,13.1,26.1,23.2,42.4,30.3c14.3,6.3,29.2,9.6,44.7,10.2c8.9,0.3,17.7-0.4,26.5-1.9
		c9.3-1.6,18.3-4.4,27-8c10.3-4.3,19.8-10,28.5-17c8.7-7,16.4-14.9,23-24"/>
	<path class="st1" d="M224,227.2c-3.1,0.1-6,0-8.8,0.2c-2.9,0.1-5.7,0.5-8.5,0.7c-0.2-4.1,1.6-7.1,5-8.9c5.6-2.9,11.2-5.7,16.7-8.7
		c0.8-0.4,1.5-1.5,1.7-2.3c2.3-9.2,4.4-18.5,6.8-27.7c0.6-2.5,1.5-5,2.5-7.5c0.7-1.8,0.6-2.8-1.5-3.1c-6.7-0.9-13.3-2.4-20-2.7
		c-16.8-0.7-33.5-0.9-50.3-1.2c-5.9-0.1-11.8-0.2-18.1-0.3c1-2.8,1.8-5.2,2.7-7.5c0.2-0.4,1-0.7,1.5-0.8c15.9-3.1,31.8-6.3,47.8-9.4
		c5.7-1.1,11.4-2.3,17.1-3.6c0.9-0.2,1.9-1.1,2.3-2c0.9-2.4,1.6-4.9,2.2-7.4c0.5-2,1.6-2.8,3.6-2.1c0.2,0.1,0.4,0.1,0.7,0.2
		c4.4,1.2,4.6,1.6,3.1,5.7c-0.3,0.9-0.8,1.8-1.4,3.1c1.7,0.1,2.1,0.2,2.9-0.1c5.1-2,9.8-3.1,14.9-3.1c2.8,0,3.7-0.5,4.2-2.2
		c2.8-8.6,5.5-17.1,8.4-25.6c2.2-6.7,4.2-13.5,9-18.9c2-2.2,4-4.8,7.4-3.6c3.2,1.1,3.8,4.2,4.2,7.2c0.8,6-0.7,11.7-2.5,17.3
		c-3.1,9.5-6.1,19-9.2,28.5c-0.7,2.1,0,3.1,2.4,5c3.5,2.7,6.5,5.9,9,9.5c0.9,1.3,1.6,1.8,3.1,3.2c0.5-1.8,0.9-3.2,1.3-4.6
		c0.6-2.2,1.5-2.7,3.7-2.1c0.1,0,0.3,0.1,0.4,0.2c4.6,1.5,4.6,1.6,3,6.2c-0.6,1.9-1.4,3.7-1.8,5.6c-0.2,0.9,0,2.3,0.6,2.9
		c11.7,12.5,23.4,25,35.1,37.5c3,3.2,5.9,6.5,9,9.5c1.6,1.5,2.3,2.9,1.4,5.1c-0.6,1.5-0.9,3.2-1.5,5.2c-2.4-1.6-4.5-3-6.6-4.4
		c-13.5-9.5-26.8-19.2-40.4-28.4c-8-5.4-16.4-10.2-24.8-15c-4.5-2.6-4.9-2.3-6.3,2.6c-3.2,11.5-8.1,22.4-13,33.3
		c-0.7,1.6-0.6,2.7,0.2,4.2c3,5.5,5.8,11.1,8.6,16.7c0.3,0.7,0.5,1.6,0.3,2.4c-0.6,2-1.3,4-2.1,6.2c-3.9-3.3-7.6-6.4-11.3-9.5"/>
</g>
</svg>
