<?xml version="1.0" encoding="utf-8"?>
<!-- Generator: Adobe Illustrator 25.2.3, SVG Export Plug-In . SVG Version: 6.00 Build 0)  -->
<svg version="1.1" id="Camada_1" xmlns="http://www.w3.org/2000/svg" xmlns:xlink="http://www.w3.org/1999/xlink" x="0px" y="0px"
	 viewBox="0 0 38 38" style="enable-background:new 0 0 38 38;" xml:space="preserve">
<style type="text/css">
	.st0{fill:#777777;}
</style>
<g>
	<g>
		<path class="st0" d="M37.5,35.3L26.7,24.5c2.1-2.6,3.3-5.9,3.3-9.5c0-8.3-6.8-15-15-15C6.8,0,0,6.7,0,15c0,8.3,6.8,15,15,15
			c3.6,0,6.9-1.3,9.4-3.4l10.8,10.8c0.3,0.3,0.7,0.5,1.1,0.5c0.4,0,0.8-0.2,1.1-0.5C38.2,36.9,38.2,35.9,37.5,35.3z M15,26.9
			C8.5,26.9,3.2,21.6,3.2,15C3.2,8.5,8.5,3.2,15,3.2c6.5,0,11.9,5.3,11.9,11.9C26.9,21.6,21.6,26.9,15,26.9z"/>
	</g>
</g>
</svg>
