<?xml version="1.0" encoding="utf-8"?>
<!-- Generator: Adobe Illustrator 25.2.3, SVG Export Plug-In . SVG Version: 6.00 Build 0)  -->
<svg version="1.1" id="Camada_1" xmlns="http://www.w3.org/2000/svg" xmlns:xlink="http://www.w3.org/1999/xlink" x="0px" y="0px"
	 viewBox="0 0 355.9 191.5" style="enable-background:new 0 0 355.9 191.5;" xml:space="preserve">
<style type="text/css">
	.st0{fill:#F0D75C;}
</style>
<g>
	<g>
		<path class="st0" d="M285.4,73.5c-30.8,17.8-169.3,97.9-169.3,97.9l-39.7,2.4l-58.6-48.3l12.3-7.1l52.8,31.1
			c0,0,42.4-28.8,74.7-52.1L36.1,32.6l15.4-8.9l152,40.8c23.7-16.8,45-31.4,55.3-37.3c30.8-17.8,79.3-4.8,79.3-4.8
			S316.2,55.7,285.4,73.5L285.4,73.5z M342.7,5.3C337,3.8,286-9,249.9,11.8c-8.8,5.1-25.2,16-49.8,33.3L56.1,6.6
			C51.5,5.3,46.7,6,42.6,8.3l-15.4,8.9c-5.6,3.2-9,9.3-8.9,15.7c0.1,6.5,3.7,12.4,9.4,15.4l96.1,51.1c-16.2,11.4-32,22.3-41.6,28.9
			L39.1,103c-5.5-3.3-12.4-3.3-17.9-0.1L8.9,110c-5,2.9-8.3,8.1-8.8,13.9c-0.5,5.8,1.9,11.5,6.4,15.2l58.6,48.3
			c3.5,2.9,7.9,4.3,12.4,4l39.7-2.4c2.8-0.2,5.4-1,7.8-2.3l169.3-97.9c34-19.7,57.6-55.1,58.6-56.6c3.1-4.8,3.8-10.8,1.8-16.1
			C352.7,10.8,348.2,6.8,342.7,5.3L342.7,5.3z"/>
	</g>
</g>
</svg>
