<?xml version="1.0" encoding="utf-8"?>
<!-- Generator: Adobe Illustrator 25.2.3, SVG Export Plug-In . SVG Version: 6.00 Build 0)  -->
<svg version="1.1" id="Camada_1" xmlns="http://www.w3.org/2000/svg" xmlns:xlink="http://www.w3.org/1999/xlink" x="0px" y="0px"
	 viewBox="0 0 23.5 22.6" style="enable-background:new 0 0 23.5 22.6;" xml:space="preserve">
<style type="text/css">
	.st0{fill:#F0D75C;}
</style>
<g>
	<g>
		<path class="st0" d="M23.1,9.9L18,14.4l1.5,6.7c0.1,0.5-0.1,1-0.5,1.3c-0.4,0.3-1,0.3-1.4,0.1l-5.9-3.5l-5.9,3.5
			c-0.2,0.1-0.4,0.2-0.6,0.2c-0.3,0-0.5-0.1-0.7-0.2C4.1,22,3.9,21.5,4,21l1.5-6.7L0.4,9.9C0,9.5-0.1,9,0.1,8.5
			C0.2,8,0.6,7.7,1.1,7.7L7.9,7l2.7-6.3C10.8,0.3,11.3,0,11.8,0s1,0.3,1.2,0.8L15.6,7l6.8,0.6c0.5,0,0.9,0.4,1.1,0.9
			C23.6,9,23.5,9.5,23.1,9.9z"/>
	</g>
</g>
</svg>
