<?xml version="1.0" encoding="utf-8"?>
<!-- Generator: Adobe Illustrator 25.2.3, SVG Export Plug-In . SVG Version: 6.00 Build 0)  -->
<svg version="1.1" id="Camada_1" xmlns="http://www.w3.org/2000/svg" xmlns:xlink="http://www.w3.org/1999/xlink" x="0px" y="0px"
	 viewBox="0 0 178 248" style="enable-background:new 0 0 178 248;" xml:space="preserve">
<style type="text/css">
	.st0{fill:url(#SVGID_1_);}
	.st1{fill:url(#SVGID_2_);}
	.st2{clip-path:url(#SVGID_4_);}
</style>
<g>
	
		<linearGradient id="SVGID_1_" gradientUnits="userSpaceOnUse" x1="10" y1="958.8" x2="178.1" y2="958.8" gradientTransform="matrix(1 0 0 1 0 -830)">
		<stop  offset="0" style="stop-color:#007099"/>
		<stop  offset="1" style="stop-color:#686868"/>
	</linearGradient>
	<path class="st0" d="M100,248H62.4C19.3,248,10,222,10,178.9V96.6c0-43.1,9.3-87,52.4-87H100c43.1,0,78.1,35,78.1,78.1V170
		C178.1,213.1,143.1,248,100,248z"/>
	
		<linearGradient id="SVGID_2_" gradientUnits="userSpaceOnUse" x1="0.5" y1="949.25" x2="168.6" y2="949.25" gradientTransform="matrix(1 0 0 1 0 -830)">
		<stop  offset="0" style="stop-color:#007099"/>
		<stop  offset="1" style="stop-color:#54AAF7"/>
	</linearGradient>
	<path class="st1" d="M90.4,238.5H52.9c-43.1,0-52.4-26-52.4-69.1V87c0-43.1,9.3-87,52.4-87h37.6c43.1,0,78.1,35,78.1,78.1v82.3
		C168.5,203.5,133.6,238.5,90.4,238.5z"/>
	<g>
		<g>
			<g>
				<defs>
					<path id="SVGID_3_" d="M90.4,238.5H52.9c-43.1,0-52.4-26-52.4-69.1V87c0-43.1,9.3-87,52.4-87h37.6c43.1,0,78.1,35,78.1,78.1
						v82.3C168.5,203.5,133.6,238.5,90.4,238.5z"/>
				</defs>
				<clipPath id="SVGID_4_">
					<use xlink:href="#SVGID_3_"  style="overflow:visible;"/>
				</clipPath>
				<g class="st2">
					
						<image style="overflow:visible;enable-background:new    ;" width="245" height="456" xlink:href="Audie_NH.png"  transform="matrix(0.6571 0 0 0.6571 5.7302 9.0239)">
					</image>
				</g>
			</g>
		</g>
	</g>
</g>
</svg>
