<?xml version="1.0" encoding="utf-8"?>
<!-- Generator: Adobe Illustrator 25.2.3, SVG Export Plug-In . SVG Version: 6.00 Build 0)  -->
<svg version="1.1" id="Camada_1" xmlns="http://www.w3.org/2000/svg" xmlns:xlink="http://www.w3.org/1999/xlink" x="0px" y="0px"
	 viewBox="0 0 178 248" style="enable-background:new 0 0 178 248;" xml:space="preserve">
<style type="text/css">
	.st0{fill:url(#SVGID_1_);}
	.st1{fill:url(#SVGID_2_);}
	.st2{clip-path:url(#SVGID_4_);}
</style>
<g>
	
		<linearGradient id="SVGID_1_" gradientUnits="userSpaceOnUse" x1="9.5" y1="958.8" x2="177.6" y2="958.8" gradientTransform="matrix(1 0 0 1 0 -830)">
		<stop  offset="0" style="stop-color:#007099"/>
		<stop  offset="1" style="stop-color:#686868"/>
	</linearGradient>
	<path class="st0" d="M99.5,248H61.9c-43.1,0-52.4-26-52.4-69.1V96.6c0-43.1,9.3-87,52.4-87h37.6c43.1,0,78.1,35,78.1,78.1V170
		C177.6,213.1,142.6,248,99.5,248z"/>
	<g>
		
			<linearGradient id="SVGID_2_" gradientUnits="userSpaceOnUse" x1="0" y1="949.25" x2="168" y2="949.25" gradientTransform="matrix(1 0 0 1 0 -830)">
			<stop  offset="0" style="stop-color:#007099"/>
			<stop  offset="1" style="stop-color:#102C74"/>
		</linearGradient>
		<path class="st1" d="M89.9,238.5H52.4c-43.1,0-52.4-26-52.4-69.1V87C0,43.9,9.3,0,52.4,0H90c43.1,0,78,35,78,78.1v82.3
			C168,203.5,133.1,238.5,89.9,238.5z"/>
	</g>
	<g>
		<g>
			<g>
				<defs>
					<path id="SVGID_3_" d="M89.9,238.5H52.4c-43.1,0-52.4-26-52.4-69.1V87C0,43.9,9.3,0,52.4,0H90c43.1,0,78,35,78,78.1v82.3
						C168,203.5,133.1,238.5,89.9,238.5z"/>
				</defs>
				<clipPath id="SVGID_4_">
					<use xlink:href="#SVGID_3_"  style="overflow:visible;"/>
				</clipPath>
				<g transform="matrix(1 0 0 1 -9.536743e-07 0)" class="st2">
					
						<image style="overflow:visible;enable-background:new    ;" width="303" height="435" xlink:href="Sherb_NH.png"  transform="matrix(0.5645 -5.974291e-02 5.974291e-02 0.5645 -8.2862 49.1238)">
					</image>
				</g>
			</g>
		</g>
	</g>
</g>
</svg>
