<?xml version="1.0" encoding="utf-8"?>
<!-- Generator: Adobe Illustrator 25.2.3, SVG Export Plug-In . SVG Version: 6.00 Build 0)  -->
<svg version="1.1" id="Camada_1" xmlns="http://www.w3.org/2000/svg" xmlns:xlink="http://www.w3.org/1999/xlink" x="0px" y="0px"
	 viewBox="0 0 414 414" style="enable-background:new 0 0 414 414;" xml:space="preserve">
<style type="text/css">
	.st0{fill:#474746;}
	.st1{fill:#27A8DE;}
	.st2{fill:#3BA87C;}
</style>
<path class="st0" d="M207,0C92.7,0,0,92.7,0,207c0,114.3,92.7,207,207,207s207-92.7,207-207C414,92.7,321.3,0,207,0z M237.9,23.5
	c23.5,4,45.4,12.3,65.1,24.1c-24.3-8-37.2,4.9-46.2,13.9c-4.8,4.9-7.9,7.9-11,7.9c-8,0-13.9-1.9-17.5-5.6c-3.7-3.8-4.4-9.2-4.4-13
	C223.9,38.7,231.3,26.4,237.9,23.5z M20.7,207c0-64.8,33.3-121.9,83.6-155.3c1.9-0.1,7.3-0.4,12.1,8.2c7.4,13.3,7,37-0.7,47.8
	c-3.6,5-7.2,5.1-10.3,4.5c-14-2.6-28,1.5-40.4,11.8c-17.3,14.3-28.7,38.9-28.7,48.8c0,4.8,1.9,9.2,5.4,12.3
	c8.8,8.1,25.5,6.5,44.8,4.6c8.5-0.8,22-2,27.5-0.9c0.3,7.5,1.7,15.3,3.1,22.9c2.4,13.5,5,27.5,0.8,38.3c-5,12.9-0.2,27.6,5.4,44.7
	c3.3,10.2,7,21.3,9.2,33.8c-7.9-9.8-17.6-20.1-28.9-25.8C68,285.2,32,244.7,20.9,211.3C20.9,209.9,20.7,208.4,20.7,207z M207,393.3
	c-80.5,0-149.1-51.5-175-123.2c17.6,21.2,39.8,40.2,62.2,51.4c11,5.5,21.7,19.5,29.5,29.8c7.2,9.5,12.4,16.2,19.3,16.2
	c1.3,0,2.6-0.2,3.9-0.7c5.6-1.9,8.5-6.9,8.5-14.9c0-25.3-6.9-46.4-12.5-63.4c-4.4-13.3-8.1-24.8-5.8-30.8
	c6.3-16.3,3.1-33.9,0.3-49.5c-1.4-7.9-2.8-15.4-2.8-21.9c0-4.8-1.9-9.2-5.4-12.3c-8.8-8-25.5-6.5-44.8-4.6c-8.1,0.8-20.8,2-26.8,1.1
	c2.3-6.9,9.9-22.5,22.3-31.7c7.2-5.4,14.3-7.4,21.7-6c12.4,2.2,23.3-2.2,30.9-12.8c12.5-17.4,13.4-49.4,2-70
	c-2.4-4.3-5.3-7.6-8.4-10.5C150.6,27.6,178,20.7,207,20.7c1.8,0,3.5,0.2,5.3,0.3c-5.6,8.9-9.1,19.5-9.1,29.9
	c0,10.9,3.5,20.4,10.2,27.3c5.2,5.5,15.1,12,32.4,12c11.9,0,19.6-7.8,25.7-14c9.3-9.5,15-15.2,34-4.9c20.7,11.2,29.7,12.1,38.6,10.2
	c10.3,11.2,19.3,23.5,26.6,36.9c-15,4.6-30.5,9.2-55.7-3.4c-43.4-21.7-77.7-12.7-96.7,25.3c-15.8,31.6-9.6,62,0.6,78.4
	c7.6,12.3,18.3,19.3,29.4,19.3c26.8,0,31.1,2.4,31.1,10.3c0,12.8,5.8,24.4,11.4,35.7c4.8,9.5,9.3,18.5,9.3,26.4
	c0,4.2-1.3,9-2.5,13.6c-2.4,9-5.2,19.2,1.5,27.8c3,4,7.6,6.6,13.7,8.2C282.7,381,246.3,393.3,207,393.3z M334.7,342.2
	c-1.1-0.4-2.3-0.7-3.5-0.7c-12.5,0-15.5-2.3-15.5-1.9c-0.4-1.6,1-6.8,1.9-10.2c1.5-5.6,3.2-12,3.2-18.9c0-12.8-5.8-24.4-11.4-35.7
	c-4.8-9.5-9.3-18.5-9.3-26.4c0-31-31.1-31-51.8-31c-3.6,0-8.2-3.7-11.8-9.5c-7.4-11.9-11.7-34.3,0.3-58.3c5-10,20.2-40.4,68.9-16.1
	c32.6,16.3,54.8,9.5,71,4.6c1-0.3,1.8-0.4,2.8-0.7c8.7,21.5,13.6,45,13.6,69.6C393.3,260.2,370.7,308.2,334.7,342.2z"/>
<path class="st1" d="M370.8,118.3c-15,4.6-30.5,9.2-55.7-3.4c-43.4-21.7-77.7-12.7-96.7,25.3c-15.8,31.6-9.6,62,0.6,78.4
	c7.6,12.3,18.3,19.3,29.4,19.3c26.8,0,31.1,2.4,31.1,10.3c0,12.8,5.8,24.4,11.4,35.7c4.8,9.5,9.3,18.5,9.3,26.4
	c0,4.2-1.3,9-2.5,13.6c-2.4,9-5.2,19.2,1.5,27.8c3,4,7.6,6.6,13.7,8.2c-30.1,20.8-66.5,33.1-105.8,33.1
	c-80.5,0-149.1-51.5-175-123.2c17.6,21.2,39.8,40.2,62.2,51.4c11,5.5,21.7,19.5,29.5,29.8c7.2,9.5,12.4,16.2,19.3,16.2
	c1.3,0,2.6-0.2,3.9-0.7c5.6-1.9,8.5-6.9,8.5-14.9c0-25.3-6.9-46.4-12.5-63.4c-4.4-13.3-8.1-24.8-5.8-30.8
	c6.3-16.3,3.1-33.9,0.3-49.5c-1.4-7.9-2.8-15.4-2.8-21.9c0-4.8-1.9-9.2-5.4-12.3c-8.8-8-25.5-6.5-44.8-4.6c-8.1,0.8-20.8,2-26.8,1.1
	c2.3-6.9,9.9-22.5,22.3-31.7c7.2-5.4,14.3-7.4,21.7-6c12.4,2.2,23.3-2.2,30.9-12.8c12.5-17.4,13.4-49.4,2-70
	c-2.4-4.3-5.3-7.6-8.4-10.5C150.6,27.6,178,20.7,207,20.7c1.8,0,3.5,0.2,5.3,0.3c-5.6,8.9-9.1,19.5-9.1,29.9
	c0,10.9,3.5,20.4,10.2,27.3c5.2,5.5,15.1,12,32.4,12c11.9,0,19.6-7.8,25.7-14c9.3-9.5,15-15.2,34-4.9c20.7,11.2,29.7,12.1,38.6,10.2
	C354.4,92.6,363.5,104.9,370.8,118.3z"/>
<path class="st2" d="M303,47.6c-24.3-8-37.2,4.9-46.2,13.9c-4.8,4.9-7.9,7.9-11,7.9c-8,0-13.9-1.9-17.5-5.6c-3.7-3.8-4.4-9.2-4.4-13
	c0-12.1,7.5-24.5,14-27.3C261.4,27.4,283.3,35.8,303,47.6z"/>
<path class="st2" d="M132.3,328.7c-7.9-9.8-17.6-20.1-28.9-25.8C68,285.2,32,244.7,20.9,211.3c0-1.5-0.2-2.9-0.2-4.3
	c0-64.8,33.3-121.9,83.6-155.3c1.9-0.1,7.3-0.4,12.1,8.2c7.4,13.3,7,37-0.7,47.8c-3.6,5-7.2,5.1-10.3,4.5c-14-2.6-28,1.5-40.4,11.8
	c-17.3,14.3-28.7,38.9-28.7,48.8c0,4.8,1.9,9.2,5.4,12.3c8.8,8.1,25.5,6.5,44.8,4.6c8.5-0.8,22-2,27.5-0.9
	c0.3,7.5,1.7,15.3,3.1,22.9c2.4,13.5,5,27.5,0.8,38.3c-5,12.9-0.2,27.6,5.4,44.7C126.5,305.1,130.1,316.2,132.3,328.7z"/>
<path class="st2" d="M393.3,207c0,53.3-22.6,101.3-58.6,135.2c-1.1-0.4-2.3-0.7-3.5-0.7c-12.5,0-15.5-2.3-15.5-1.9
	c-0.4-1.6,1-6.8,1.9-10.2c1.5-5.6,3.2-12,3.2-18.9c0-12.8-5.8-24.4-11.4-35.7c-4.8-9.5-9.3-18.5-9.3-26.4c0-31-31.1-31-51.8-31
	c-3.6,0-8.2-3.7-11.8-9.5c-7.4-11.9-11.7-34.3,0.3-58.3c5-10,20.2-40.4,68.9-16.1c32.6,16.3,54.8,9.5,71,4.6c1-0.3,1.8-0.4,2.8-0.7
	C388.4,158.9,393.3,182.4,393.3,207z"/>
</svg>
