<?xml version="1.0" encoding="utf-8"?>
<!-- Generator: Adobe Illustrator 25.2.3, SVG Export Plug-In . SVG Version: 6.00 Build 0)  -->
<svg version="1.1" id="Camada_1" xmlns="http://www.w3.org/2000/svg" xmlns:xlink="http://www.w3.org/1999/xlink" x="0px" y="0px"
	 viewBox="0 0 223.2 279.1" style="enable-background:new 0 0 223.2 279.1;" xml:space="preserve">
<style type="text/css">
	.st0{fill:#F0D75C;}
</style>
<g>
	<g>
		<g>
			<path class="st0" d="M188.4,167.4H62.8v-41.9h125.6l20.9,20.9L188.4,167.4L188.4,167.4z M34.9,83.7L14,62.8l20.9-20.9h125.6v41.9
				H34.9L34.9,83.7z M219.2,136.6l-20.9-20.9c-2.6-2.6-6.2-4.1-9.9-4.1h-62.8v-14h34.9c7.7,0,14-6.2,14-14V41.9c0-7.7-6.2-14-14-14
				h-34.9V0h-14v27.9H34.9c-3.7,0-7.3,1.5-9.9,4.1L4.1,52.9c-5.5,5.5-5.5,14.3,0,19.7L25,93.6c2.6,2.6,6.2,4.1,9.9,4.1h76.7v14H62.8
				c-7.7,0-14,6.2-14,14v41.9c0,7.7,6.2,14,14,14h48.8v97.7h14v-97.7h62.8c3.7,0,7.3-1.5,9.9-4.1l20.9-20.9
				C224.6,150.9,224.6,142.1,219.2,136.6L219.2,136.6z"/>
		</g>
	</g>
</g>
</svg>
