<?xml version="1.0" encoding="utf-8"?>
<!-- Generator: Adobe Illustrator 24.1.0, SVG Export Plug-In . SVG Version: 6.00 Build 0)  -->
<svg version="1.1" id="Camada_1" xmlns="http://www.w3.org/2000/svg" xmlns:xlink="http://www.w3.org/1999/xlink" x="0px" y="0px"
	 viewBox="0 0 335.9 275.1" style="enable-background:new 0 0 335.9 275.1;" xml:space="preserve">
<style type="text/css">
	.st0{fill:#FFFFFF;}
</style>
<g>
	<path class="st0" d="M335.5,219.3c-0.6,1.5-0.9,3.2-1.5,5.2c-2.4-1.6-4.5-3-6.6-4.4c-13.5-9.5-26.8-19.1-40.4-28.4
		c-8-5.4-16.4-10.2-24.8-15c-4.5-2.6-4.9-2.3-6.3,2.6c-3.2,11.5-8.1,22.4-13,33.3c-0.7,1.6-0.6,2.7,0.2,4.2c3,5.5,5.8,11.1,8.6,16.7
		c0.3,0.7,0.5,1.6,0.3,2.3c-0.5,2-1.3,4-2.1,6.2c-2.9-2.5-7.9-6.6-11.8-9.8c-0.3-0.2-0.6-0.2-0.9,0.1c-12.6,13.3-27.3,23.6-44.2,31
		c-12,5.3-24.5,8.8-37.5,10.5c-15.8,2.1-31.5,1.4-47-2c-15.4-3.4-29.8-9.1-43.2-17.3c-13.7-8.4-25.6-19-35.7-31.6
		c-7.2-9-13.2-18.8-17.9-29.4c-4.9-11.1-8.3-22.7-10.2-34.7c-2.1-13.5-2.2-27-0.3-40.5c2.3-16.5,7.6-32.1,15.6-46.7
		c8.5-15.5,19.6-28.9,33.2-40.2c9.2-7.6,19.2-13.8,30-18.8c10.4-4.9,21.4-8.2,32.6-10.3c19.8-3.7,39.6-3.1,59.2,1.9
		c15.8,4.1,30.3,10.8,43.7,20.1c12.7,8.9,23,20.1,31.1,33.4c7.9,14.4-15-6.4-34.4-19.9c-17-11.9-35.6-20.2-56.2-23.2
		c-10.7-1.6-21.5-2-32.2-0.5c-5.7,0.8-11.5,1.5-17.1,3c-9.6,2.4-18.8,6-27.5,10.7C53.2,42,34.5,62.9,23,90.3
		c-6.6,15.7-9.8,32.2-9.5,49.2c0.2,13.5,2.6,26.6,7.1,39.4c5.6,15.9,14,30,25.3,42.3c12,13.1,26.1,23.2,42.4,30.3
		c14.3,6.3,29.2,9.7,44.7,10.2c8.9,0.3,17.7-0.4,26.5-1.9c9.3-1.6,18.3-4.4,27-8c10.3-4.3,19.8-10,28.5-17c2.6-2.1,5.1-4.2,7.5-6.5
		c0.4-0.4,0.1-1.1-0.5-1.1c-2.4,0-4.6,0-6.8,0.1c-2.8,0.1-5.7,0.5-8.5,0.7c-0.2-4,1.5-7.1,5-8.9c5.5-2.8,11.1-5.7,16.5-8.7
		c0.8-0.4,1.6-1.5,1.9-2.4c2.3-9.2,4.4-18.5,6.8-27.7c0.6-2.5,1.5-5,2.5-7.5c0.7-1.8,0.6-2.8-1.5-3.1c-6.6-0.9-13.3-2.4-20-2.7
		c-16.8-0.7-33.5-0.8-50.3-1.2c-5.9-0.1-11.8-0.2-18.1-0.3c1-2.8,1.8-5.2,2.7-7.5c0.2-0.4,1-0.7,1.5-0.8c15.9-3.2,31.8-6.3,47.8-9.4
		c5.7-1.1,11.4-2.3,17.1-3.6c0.9-0.2,1.9-1.1,2.3-2c0.9-2.4,1.6-4.9,2.2-7.4c0.5-2,1.6-2.8,3.6-2.1c0.2,0.1,0.4,0.1,0.7,0.2
		c4.4,1.2,4.6,1.6,3.1,5.7c-0.3,0.9-0.8,1.8-1.4,3.1c1.7,0.1,2.1,0.2,2.9-0.1c5.1-2,9.8-3.1,14.9-3.1c2.8,0,3.7-0.5,4.2-2.2
		c2.8-8.6,5.5-17.1,8.4-25.6c2.2-6.7,4.2-13.5,8.9-18.9c2-2.2,4-4.8,7.4-3.6c3.2,1.1,3.8,4.2,4.2,7.2c0.8,6-0.7,11.7-2.5,17.3
		c-3.1,9.5-6.1,19-9.2,28.5c-0.7,2.1,0,3.1,2.4,5c3.5,2.7,6.5,5.9,9,9.5c0.9,1.3,1.6,1.8,3.1,3.2c0.5-1.8,0.9-3.2,1.3-4.6
		c0.6-2.2,1.5-2.7,3.7-2.1c0.2,0,0.3,0.1,0.4,0.2c4.6,1.5,4.6,1.6,3,6.2c-0.6,1.8-1.4,3.7-1.8,5.6c-0.2,0.9,0,2.3,0.6,2.9
		c11.7,12.5,23.4,25,35.1,37.5c3,3.2,5.9,6.5,9,9.5C335.6,215.7,336.4,217.1,335.5,219.3z"/>
</g>
</svg>
